# xmcd
#
# Track frame offsets: 
#        182
#        15607
#        33257
#        49877
#        65392
#        82145
#        100717
#        119890
#        132942
#        150120
#        166235
#        184622
#        199080
#        228032
#
# Disc length: 4440 seconds
#
# Revision: 1
# Processed by: cddbd v1.5.2PL0 Copyright (c) Steve Scherf et al.
# Submitted via: ExactAudioCopy v0.99pb5
#
DISCID=ac11560e
DTITLE=Daniel Kübelböck - Positive Energie
DYEAR=2003
DGENRE=Pop
TTITLE0=Heartbeat
TTITLE1=You Drive Me Crazy
TTITLE2=Love Is In The Air
TTITLE3=I Don't Wanna Live Another Live
TTITLE4=Love Of My Life
TTITLE5=Little Satelite
TTITLE6=Heatbreaker
TTITLE7=Pretty Woman
TTITLE8=Rock And Roll Hero
TTITLE9=Life Is Too Short
TTITLE10=Call Me Mr Lover
TTITLE11=Superman
TTITLE12=Every Time You Go Away
TTITLE13=Dummy
EXTD=
EXTT0=
EXTT1=
EXTT2=
EXTT3=
EXTT4=
EXTT5=
EXTT6=
EXTT7=
EXTT8=
EXTT9=
EXTT10=
EXTT11=
EXTT12=
EXTT13=
PLAYORDER=
